<svg width="124" height="124" viewBox="0 0 124 124" fill="none" xmlns="http://www.w3.org/2000/svg">
<rect width="123.509" height="123.509" rx="61.7546" fill="#3E3E3E"/>
<rect x="40.6672" y="41.2031" width="44.5211" height="44.5211" rx="22.2605" fill="#FF7455"/>
<path d="M41.5131 104.302L43.4295 101.842L39.3992 98.627L40.0294 97.8176L44.0596 101.032L45.9847 98.5613L41.4726 94.9621L42.0941 94.1641L47.4276 98.4181L41.7129 105.756L36.3794 101.501L37.0009 100.703L41.5131 104.302Z" fill="#F9F9F9"/>
<path d="M27.056 84.411L29.2016 80.4062L29.7587 81.6381L27.9902 84.6453L31.401 85.2697L31.9524 86.4883L27.5609 85.5273L25.5426 89.2711L24.9855 88.0392L26.6335 85.2739L23.4941 84.7412L22.937 83.5094L27.056 84.411Z" fill="#F9F9F9"/>
<path d="M17.2839 67.6762C16.4917 67.0752 16.1204 66.2155 16.17 65.097C16.215 64.082 16.5998 63.2755 17.3243 62.6774C18.0395 62.0789 18.9032 61.8027 19.9155 61.8487C20.9279 61.8947 21.7637 62.2481 22.423 62.909C23.0916 63.5704 23.4023 64.4321 23.3552 65.4941C23.3081 66.5561 22.8585 67.3551 22.0065 67.8908L25.8932 68.0674L25.8463 69.1247L16.1226 68.6829L16.1695 67.6256L17.2839 67.6762ZM17.111 65.281C17.0773 66.0423 17.3106 66.6556 17.8111 67.121C18.2845 67.5663 18.8974 67.806 19.6497 67.8402C20.4019 67.8744 21.0336 67.6912 21.5446 67.2907C22.0843 66.8725 22.371 66.2829 22.4048 65.5216C22.4381 64.7697 22.2052 64.147 21.706 63.6534C21.2333 63.1893 20.6209 62.9402 19.8686 62.906C19.1164 62.8719 18.4843 63.0644 17.9725 63.4838C17.4315 63.9301 17.1444 64.5292 17.111 65.281Z" fill="#F9F9F9"/>
<path d="M25.7707 48.0948L25.3206 49.0502L16.5093 44.7991L16.9594 43.8438L25.7707 48.0948Z" fill="#F9F9F9"/>
<path d="M31.3938 27.7727C32.1725 27.0732 33.0366 26.7688 33.9861 26.8593C34.8894 26.9537 35.6835 27.3915 36.3685 28.1724C37.0535 28.9534 37.3888 29.8033 37.3742 30.7222C37.3504 31.687 36.9491 32.5192 36.1704 33.2186C35.3917 33.9181 34.5276 34.2226 33.578 34.132C32.6748 34.0376 31.8807 33.5999 31.1956 32.8189C30.5106 32.038 30.1753 31.188 30.1899 30.2692C30.2138 29.3044 30.615 28.4722 31.3938 27.7727ZM35.5409 32.501C36.1041 31.9951 36.3763 31.3984 36.3575 30.7109C36.3433 30.0569 36.0862 29.445 35.5863 28.8751C35.0865 28.3051 34.5165 27.9742 33.8765 27.8824C33.2042 27.7819 32.5864 27.9845 32.0233 28.4904C31.4601 28.9963 31.1879 29.593 31.2067 30.2805C31.2209 30.9345 31.4779 31.5464 31.9778 32.1164C32.4777 32.6863 33.0476 33.0172 33.6876 33.1091C34.3599 33.2095 34.9778 33.0068 35.5409 32.501Z" fill="#F9F9F9"/>
<path d="M53.6084 18.7812L53.9137 19.7935L53.7937 19.8306C53.0735 20.0531 52.5749 20.5268 52.2979 21.2518C52.0393 21.9415 52.0268 22.6733 52.2603 23.4471L53.156 26.4165L52.1557 26.7255L50.1199 19.977L51.1202 19.668L51.621 21.3281C51.6227 20.5603 51.929 19.9001 52.5399 19.3474C52.7898 19.1128 53.1238 18.931 53.5417 18.8019L53.6084 18.7812Z" fill="#F9F9F9"/>
<path d="M74.065 25.0196C74.9956 25.1459 75.7156 24.8449 76.2248 24.1167L77.3581 24.2705C77.0345 24.8721 76.5841 25.333 76.007 25.6533C75.4392 25.9749 74.7451 26.0801 73.9251 25.9688C72.8839 25.8275 72.0826 25.3627 71.5211 24.5746C70.9755 23.8076 70.7707 22.9112 70.9067 21.8856C71.0438 20.8505 71.461 20.0386 72.1581 19.4498C72.8958 18.838 73.7806 18.6022 74.8126 18.7423C75.8446 18.8823 76.6367 19.3458 77.189 20.1327C77.7082 20.8866 77.8991 21.7811 77.7619 22.8161L77.7064 23.2357L71.9153 22.4496C71.9037 23.103 72.0866 23.6689 72.4641 24.1473C72.8495 24.6363 73.3831 24.927 74.065 25.0196ZM74.6865 19.6934C74.0508 19.6071 73.4897 19.735 73.0036 20.0772C72.5475 20.4044 72.2325 20.8695 72.0589 21.4725L76.758 22.1103C76.7475 21.4823 76.5648 20.9498 76.2101 20.5124C75.8301 20.0527 75.3223 19.7797 74.6865 19.6934Z" fill="#F9F9F9"/>
<path d="M104.11 39.9366L95.9373 44.2802L95.4506 43.3432L102.217 39.7476L96.7391 38.7534L99.0135 33.5756L92.2482 37.1712L91.7615 36.2341L99.9346 31.8906L100.499 32.9775L98.1587 37.9988L103.546 38.8497L104.11 39.9366Z" fill="#F9F9F9"/>
<path d="M106.86 63.8108C106.746 64.8582 106.308 65.6709 105.543 66.2488C104.811 66.7923 103.933 67.0073 102.906 66.8937C101.881 66.7801 101.068 66.3777 100.47 65.6868C99.8476 64.9554 99.5931 64.066 99.7067 63.0185C99.8197 61.9711 100.258 61.1584 101.022 60.5806C101.755 60.037 102.634 59.8221 103.659 59.9357C104.685 60.0493 105.497 60.4516 106.096 61.1426C106.718 61.874 106.973 62.7634 106.86 63.8108ZM100.649 63.123C100.567 63.8805 100.761 64.5076 101.232 65.0045C101.676 65.4796 102.272 65.7586 103.021 65.8416C103.769 65.9245 104.411 65.7826 104.947 65.416C105.511 65.0338 105.835 64.4639 105.917 63.7064C105.999 62.9489 105.805 62.3217 105.335 61.8248C104.891 61.3497 104.294 61.0707 103.546 60.9878C102.797 60.9049 102.155 61.0467 101.62 61.4133C101.055 61.7955 100.731 62.3654 100.649 63.123Z" fill="#F9F9F9"/>
<path d="M100.756 86.7269L99.8575 86.1843L99.9216 86.0749C100.308 85.4208 100.364 84.7308 100.088 84.0054C99.8226 83.3187 99.3464 82.7677 98.6596 82.3527L96.0261 80.7601L96.563 79.8516L102.548 83.4711L102.011 84.3794L100.539 83.4893C101.047 84.0597 101.258 84.7569 101.172 85.5817C101.143 85.9253 101.015 86.2866 100.791 86.6662L100.756 86.7269Z" fill="#F9F9F9"/>
<path d="M82.4666 96.1156C81.6933 96.6539 81.3593 97.3659 81.4646 98.2514L80.5226 98.9076C80.3635 98.2415 80.3916 97.5938 80.6069 96.9644C80.8146 96.3407 81.2589 95.791 81.9408 95.3168C82.8061 94.7143 83.7091 94.5146 84.6476 94.7171C85.5609 94.9154 86.307 95.4403 86.8864 96.2934C87.4714 97.1535 87.7008 98.039 87.5746 98.9485C87.4337 99.9032 86.9338 100.679 86.0762 101.276C85.2186 101.873 84.324 102.068 83.3925 101.86C82.5077 101.654 81.7728 101.12 81.1878 100.26L80.9507 99.911L85.7652 96.5601C85.3399 96.0676 84.8288 95.7727 84.232 95.6746C83.6219 95.5737 83.0334 95.7204 82.4666 96.1156ZM85.5386 100.485C86.0671 100.118 86.3983 99.6421 86.5315 99.0579C86.6528 98.5054 86.5775 97.9466 86.3063 97.3821L82.4003 100.101C82.8242 100.559 83.313 100.83 83.8659 100.914C84.453 100.996 85.0101 100.854 85.5386 100.485Z" fill="#F9F9F9"/>
<path d="M58.8795 59.1484H67.4073H58.8795ZM67.4073 59.1484V67.7785V59.1484ZM67.4073 59.1484L58.4443 68.2187Z" fill="white"/>
<path d="M67.4073 59.1484L58.4443 68.2187M58.8795 59.1484H67.4073H58.8795ZM67.4073 59.1484V67.7785V59.1484Z" stroke="white" stroke-width="1.5"/>
</svg>
